<svg width="32" height="32" viewBox="0 0 32 32" fill="none" xmlns="http://www.w3.org/2000/svg">
<rect width="32" height="32" rx="16" fill="#F4F8FB"/>
<path d="M24 17.8088V24H20.5699V18.2237C20.5699 16.7734 20.0747 15.7829 18.8328 15.7829C17.885 15.7829 17.322 16.4497 17.0734 17.0954C16.9831 17.3261 16.9598 17.6466 16.9598 17.9702V23.9997H13.5294C13.5294 23.9997 13.5755 14.2166 13.5294 13.2039H16.96V14.7338C16.9531 14.7459 16.9434 14.7576 16.9373 14.7691H16.96V14.7338C17.4159 13.9998 18.2288 12.9504 20.0514 12.9504C22.3081 12.9504 24 14.4934 24 17.8088ZM9.94104 8C8.76767 8 8 8.80602 8 9.86502C8 10.9015 8.74541 11.7308 9.89602 11.7308H9.91827C11.1147 11.7308 11.8585 10.9015 11.8585 9.86502C11.8358 8.80602 11.1147 8 9.94104 8ZM8.20388 24H11.6329V13.2039H8.20388V24Z" fill="#060F42"/>
</svg>
