<svg width="34" height="20" viewBox="0 0 34 20" fill="none" xmlns="http://www.w3.org/2000/svg">
<path d="M21.3664 17.5039H12.6172V2.27148H21.3664V17.5039Z" fill="#FF5F00"/>
<path d="M13.1757 9.88672C13.1757 6.79675 14.6692 4.04429 16.9948 2.27049C15.2941 0.973407 13.1478 0.19922 10.8151 0.19922C5.29285 0.19922 0.816406 4.53639 0.816406 9.88672C0.816406 15.237 5.29285 19.5742 10.8151 19.5742C13.1478 19.5742 15.2941 18.8 16.9948 17.5029C14.6692 15.7292 13.1757 12.9767 13.1757 9.88672Z" fill="#EB001B"/>
<path d="M33.1634 9.88672C33.1634 15.237 28.687 19.5742 23.1647 19.5742C20.832 19.5742 18.6857 18.8 16.9844 17.5029C19.3107 15.7292 20.8041 12.9767 20.8041 9.88672C20.8041 6.79675 19.3107 4.04429 16.9844 2.27049C18.6857 0.973407 20.832 0.19922 23.1647 0.19922C28.687 0.19922 33.1634 4.53639 33.1634 9.88672Z" fill="#F79E1B"/>
<path d="M8.33884 9.94864C8.33884 9.52549 8.62508 9.17786 9.09282 9.17786C9.53974 9.17786 9.84145 9.5105 9.84145 9.94864C9.84145 10.3868 9.53974 10.7194 9.09282 10.7194C8.62508 10.7194 8.33884 10.3718 8.33884 9.94864ZM10.3508 9.94864V8.74492H9.8105V9.0372C9.63912 8.82044 9.37906 8.68438 9.02558 8.68438C8.32873 8.68438 7.78243 9.21361 7.78243 9.94864C7.78243 10.6842 8.32873 11.2129 9.02558 11.2129C9.37906 11.2129 9.63912 11.0768 9.8105 10.8601V11.1524H10.3508V9.94864ZM28.6106 9.94864C28.6106 9.52549 28.8969 9.17786 29.3646 9.17786C29.8121 9.17786 30.1132 9.5105 30.1132 9.94864C30.1132 10.3868 29.8121 10.7194 29.3646 10.7194C28.8969 10.7194 28.6106 10.3718 28.6106 9.94864ZM30.6232 9.94864V7.77813H30.0823V9.0372C29.9109 8.82044 29.6509 8.68438 29.2974 8.68438C28.6005 8.68438 28.0542 9.21361 28.0542 9.94864C28.0542 10.6842 28.6005 11.2129 29.2974 11.2129C29.6509 11.2129 29.9109 11.0768 30.0823 10.8601V11.1524H30.6232V9.94864ZM17.0581 9.15307C17.4063 9.15307 17.63 9.36465 17.6871 9.73706H16.3976C16.4553 9.38944 16.6731 9.15307 17.0581 9.15307ZM17.0688 8.68438C16.3404 8.68438 15.831 9.19804 15.831 9.94864C15.831 10.7142 16.3613 11.2129 17.1051 11.2129C17.4794 11.2129 17.8222 11.1224 18.1239 10.8756L17.8591 10.4877C17.6508 10.6485 17.3854 10.7396 17.1361 10.7396C16.788 10.7396 16.4708 10.5834 16.3928 10.1498H18.2382C18.2435 10.0847 18.2489 10.019 18.2489 9.94864C18.2435 9.19804 17.7651 8.68438 17.0688 8.68438ZM23.5934 9.94864C23.5934 9.52549 23.8797 9.17786 24.3474 9.17786C24.7943 9.17786 25.096 9.5105 25.096 9.94864C25.096 10.3868 24.7943 10.7194 24.3474 10.7194C23.8797 10.7194 23.5934 10.3718 23.5934 9.94864ZM25.6054 9.94864V8.74492H25.0651V9.0372C24.8931 8.82044 24.6336 8.68438 24.2802 8.68438C23.5833 8.68438 23.037 9.21361 23.037 9.94864C23.037 10.6842 23.5833 11.2129 24.2802 11.2129C24.6336 11.2129 24.8931 11.0768 25.0651 10.8601V11.1524H25.6054V9.94864ZM20.5418 9.94864C20.5418 10.6791 21.0667 11.2129 21.8677 11.2129C22.242 11.2129 22.4913 11.1322 22.7615 10.9258L22.502 10.5026C22.2991 10.6439 22.0861 10.7194 21.8516 10.7194C21.4201 10.7142 21.103 10.4121 21.103 9.94864C21.103 9.48513 21.4201 9.18305 21.8516 9.17786C22.0861 9.17786 22.2991 9.25338 22.502 9.39463L22.7615 8.97148C22.4913 8.76509 22.242 8.68438 21.8677 8.68438C21.0667 8.68438 20.5418 9.21822 20.5418 9.94864ZM27.5085 8.68438C27.1967 8.68438 26.9938 8.82562 26.8533 9.0372V8.74492H26.3178V11.1524H26.8587V9.80278C26.8587 9.40443 27.0354 9.18305 27.3889 9.18305C27.4984 9.18305 27.6127 9.19804 27.7269 9.24358L27.8936 8.7501C27.7739 8.70456 27.618 8.68438 27.5085 8.68438ZM13.0234 8.93631C12.7633 8.77028 12.4051 8.68438 12.01 8.68438C11.3804 8.68438 10.9751 8.97667 10.9751 9.45516C10.9751 9.84775 11.2768 10.0899 11.8326 10.1654L12.0879 10.2006C12.3843 10.2409 12.5241 10.3164 12.5241 10.4525C12.5241 10.6387 12.3266 10.7448 11.9576 10.7448C11.5833 10.7448 11.3131 10.6289 11.131 10.4928L10.8763 10.9004C11.1727 11.112 11.547 11.2129 11.9522 11.2129C12.6699 11.2129 13.0859 10.8854 13.0859 10.4271C13.0859 10.004 12.7586 9.78261 12.2176 9.70709L11.963 9.67134C11.7291 9.64137 11.5416 9.5964 11.5416 9.43498C11.5416 9.25857 11.7184 9.15307 12.0147 9.15307C12.3319 9.15307 12.639 9.26895 12.7895 9.35946L13.0234 8.93631ZM19.9955 8.68438C19.6837 8.68438 19.4807 8.82562 19.3409 9.0372V8.74492H18.8053V11.1524H19.3457V9.80278C19.3457 9.40443 19.5224 9.18305 19.8759 9.18305C19.9854 9.18305 20.0996 9.19804 20.2139 9.24358L20.3805 8.7501C20.2609 8.70456 20.105 8.68438 19.9955 8.68438ZM15.3841 8.74492H14.5004V8.0145H13.9541V8.74492H13.4501V9.22341H13.9541V10.3216C13.9541 10.8803 14.1779 11.2129 14.817 11.2129C15.0515 11.2129 15.3216 11.1426 15.493 11.0267L15.3371 10.5782C15.1759 10.6687 14.9991 10.7142 14.8587 10.7142C14.5885 10.7142 14.5004 10.5528 14.5004 10.3113V9.22341H15.3841V8.74492ZM7.30457 11.1524V9.64137C7.30457 9.07236 6.93026 8.68957 6.32684 8.68438C6.00965 8.67919 5.68235 8.77489 5.45324 9.11272C5.28186 8.8458 5.01169 8.68438 4.63202 8.68438C4.36661 8.68438 4.10715 8.7599 3.90422 9.04181V8.74492H3.36328V11.1524H3.90898V9.81777C3.90898 9.39981 4.14821 9.17786 4.51776 9.17786C4.8766 9.17786 5.0581 9.40443 5.0581 9.81258V11.1524H5.6044V9.81777C5.6044 9.39981 5.85374 9.17786 6.21258 9.17786C6.58154 9.17786 6.75828 9.40443 6.75828 9.81258V11.1524H7.30457Z" fill="white"/>
</svg>
