<svg width="32" height="32" viewBox="0 0 32 32" fill="none" xmlns="http://www.w3.org/2000/svg">
<g clip-path="url(#clip0_7244_80373)">
<path d="M16 32C24.8366 32 32 24.8366 32 16C32 7.16344 24.8366 0 16 0C7.16344 0 0 7.16344 0 16C0 24.8366 7.16344 32 16 32Z" fill="#F4F8FB"/>
<path d="M23.9806 8.34556C24.6185 8.09669 25.2779 8.65481 25.1378 9.32494L22.2772 22.9987C22.1436 23.6398 21.3904 23.9286 20.8625 23.5407L16.5441 20.3709L14.3429 22.6184C13.9561 23.0128 13.2892 22.8522 13.1232 22.3264L11.5351 17.2851L7.27812 16.0277C6.71893 15.8628 6.68662 15.0849 7.22855 14.8727L23.9806 8.34556ZM21.8807 11.3796C22.0671 11.2147 21.8505 10.9239 21.6393 11.0553L12.4509 16.7539C12.2892 16.8541 12.2149 17.0512 12.272 17.2333L13.5251 22.7358C13.5499 22.8199 13.6705 22.808 13.6813 22.7207L13.9614 18.5274C13.9722 18.4239 14.0217 18.3291 14.0994 18.2602L21.8807 11.3796Z" fill="#060F42"/>
<path d="M21.6402 11.0546C21.8514 10.9232 22.068 11.2141 21.8816 11.3789L14.1004 18.2595C14.0228 18.3284 13.9732 18.4232 13.9624 18.5267L13.6823 22.7201C13.6716 22.8073 13.5509 22.8192 13.5261 22.7351L12.273 17.2326C12.2159 17.0506 12.2902 16.8534 12.4519 16.7532L21.6402 11.0546Z" fill="#9EC2E5"/>
<path d="M14.2902 22.6699C14.2707 22.6862 14.2511 22.7014 14.2305 22.7155V22.7145C14.2511 22.7003 14.2707 22.6862 14.2902 22.6699Z" fill="#DADDE0"/>
<path d="M14.1016 22.7832C14.1461 22.7648 14.1884 22.742 14.2297 22.7148C14.1884 22.7419 14.145 22.7647 14.1016 22.7832Z" fill="#DADDE0"/>
<path d="M13.75 22.8325C13.8448 22.8422 13.9407 22.8346 14.0344 22.8066C13.9666 22.8282 13.8965 22.8379 13.8265 22.8379C13.8049 22.8379 13.7834 22.8368 13.7629 22.8346C13.7586 22.8347 13.7543 22.8347 13.75 22.8325Z" fill="#DADDE0"/>
<path d="M13.8258 22.8373C13.804 22.8373 13.7823 22.8362 13.7617 22.834C13.7823 22.8362 13.804 22.8373 13.8258 22.8373Z" fill="white"/>
<path d="M13.747 22.8327C13.7513 22.8348 13.7556 22.8348 13.7599 22.8348C13.7373 22.8337 13.7168 22.8305 13.6953 22.8262C13.7125 22.8295 13.7298 22.8316 13.747 22.8327Z" fill="white"/>
<path d="M13.749 22.833C13.7318 22.8319 13.7145 22.8298 13.6973 22.8266C13.6898 22.8255 13.6823 22.8245 13.6758 22.8223C13.6995 22.8266 13.7242 22.8309 13.749 22.833Z" fill="#DADDE0"/>
<path d="M13.5938 22.7988C13.6174 22.8064 13.6412 22.8128 13.6649 22.8193C13.6552 22.8172 13.6455 22.815 13.6358 22.8129C13.6315 22.8118 13.6272 22.8108 13.6239 22.8086C13.6142 22.8064 13.6034 22.8031 13.5938 22.7988Z" fill="#DADDE0"/>
<path d="M13.6406 22.8125C13.6491 22.8144 13.6575 22.8163 13.666 22.8181C13.6575 22.8172 13.6491 22.8153 13.6406 22.8125Z" fill="white"/>
<path d="M13.5966 22.7984C13.6063 22.8027 13.6172 22.806 13.627 22.8081C13.6107 22.8049 13.5944 22.7995 13.5781 22.793C13.5846 22.7951 13.59 22.7973 13.5966 22.7984Z" fill="white"/>
<path d="M13.5913 22.799C13.5853 22.798 13.5803 22.7959 13.5743 22.794C13.5733 22.795 13.5713 22.794 13.5703 22.793V22.791C13.5773 22.795 13.5843 22.7969 13.5913 22.799Z" fill="#DADDE0"/>
<path d="M13.5195 20.7188L13.5702 22.7896C13.5529 22.7842 13.5357 22.7777 13.5195 22.7702V20.7188Z" fill="#D1D1D1"/>
<path d="M13.5195 18.2074V20.72L13.457 18.1621L13.5195 18.2074Z" fill="#DADDE0"/>
<path d="M21.8816 11.3789L14.1004 18.2595C14.0228 18.3284 13.9732 18.4232 13.9624 18.5267L13.6828 22.7204C13.6721 22.8077 13.5514 22.8195 13.5255 22.7355L12.273 17.2327C12.2159 17.0506 12.2902 16.8534 12.4519 16.7532L21.6403 11.0547C21.8515 10.9232 22.0681 11.2141 21.8816 11.3789Z" fill="#F4F8FB"/>
</g>
<defs>
<clipPath id="clip0_7244_80373">
<rect width="32" height="32" fill="white"/>
</clipPath>
</defs>
</svg>
