<svg width="36" height="13" viewBox="0 0 36 13" fill="none" xmlns="http://www.w3.org/2000/svg">
<path d="M13.6651 0.488265L8.95872 12.2811H5.86239L3.55046 2.87285C3.42661 2.30922 3.30275 2.09244 2.88991 1.8323C2.18807 1.4421 1.03211 1.05189 0 0.835113L0.0825688 0.488265H5.0367C5.65596 0.488265 6.23395 0.921826 6.3578 1.70224L7.59633 8.5525L10.6101 0.531621H13.6651V0.488265ZM25.7202 8.42243C25.7202 5.30079 21.633 5.12737 21.633 3.73997C21.633 3.30641 22.0459 2.87285 22.8716 2.74278C23.2844 2.69942 24.4404 2.65607 25.7615 3.26305L26.2569 0.748401C25.555 0.531621 24.6468 0.271484 23.5321 0.271484C20.6422 0.271484 18.6193 1.87566 18.6193 4.17353C18.6193 5.86442 20.0642 6.81825 21.1789 7.38188C22.2936 7.94551 22.7064 8.33572 22.7064 8.85599C22.7064 9.6364 21.7982 9.98325 20.9725 10.0266C19.5275 10.07 18.6606 9.59304 18 9.28955L17.4633 11.8909C18.1239 12.2378 19.4037 12.4979 20.6835 12.4979C23.6972 12.4979 25.7202 10.8937 25.7202 8.42243ZM33.3165 12.2811H36L33.6468 0.488265H31.1697C30.5917 0.488265 30.1376 0.835113 29.9312 1.35539L25.555 12.2811H28.6101L29.2294 10.5035H32.945L33.3165 12.2811ZM30.055 8.11894L31.5826 3.69662L32.4495 8.11894H30.055ZM17.8349 0.488265L15.4404 12.2811H12.5505L14.945 0.488265H17.8349Z" fill="#F4F8FB"/>
</svg>
