<svg width="32" height="32" viewBox="0 0 32 32" fill="none" xmlns="http://www.w3.org/2000/svg">
<g clip-path="url(#clip0_7244_80356)">
<path d="M16 32C24.8366 32 32 24.8366 32 16C32 7.16344 24.8366 0 16 0C7.16344 0 0 7.16344 0 16C0 24.8366 7.16344 32 16 32Z" fill="#F4F8FB"/>
<path d="M24.4652 11.2453L24.4599 11.2241C24.0324 9.49583 22.1051 7.64133 20.3351 7.25552L20.3151 7.25139C17.4522 6.70527 14.5494 6.70527 11.6872 7.25139L11.6666 7.25552C9.89725 7.64133 7.96981 9.49595 7.54175 11.2241L7.537 11.2453C7.0085 13.6588 7.0085 16.1066 7.537 18.5201L7.54175 18.5413C7.95163 20.1958 9.73544 21.9651 11.4394 22.4517V24.381C11.4394 25.0793 12.2903 25.4222 12.7742 24.9183L14.7289 22.8865C15.1529 22.9101 15.5771 22.9234 16.0011 22.9234C17.4422 22.9234 18.8839 22.7871 20.3151 22.5141L20.335 22.51C22.105 22.1241 24.0324 20.2695 24.4599 18.5413L24.4651 18.5202C24.9936 16.1066 24.9936 13.659 24.4652 11.2453ZM22.9182 18.1702C22.6328 19.2978 21.1694 20.6995 20.0067 20.9585C18.4845 21.248 16.9502 21.3717 15.4174 21.3293C15.3869 21.3284 15.3576 21.3403 15.3364 21.3621C15.1189 21.5854 13.9092 22.8273 13.9092 22.8273L12.3912 24.3853C12.2802 24.501 12.0852 24.4222 12.0852 24.2625V21.0665C12.0852 21.0137 12.0476 20.9689 11.9957 20.9586C11.9954 20.9585 11.9951 20.9585 11.9948 20.9585C10.8321 20.6995 9.36919 19.2977 9.08325 18.1701C8.60756 15.9885 8.60756 13.7769 9.08325 11.5953C9.36919 10.4677 10.8321 9.06595 11.9948 8.80695C14.6533 8.30133 17.3488 8.30133 20.0067 8.80695C21.1701 9.06595 22.6329 10.4677 22.9183 11.5953C23.3945 13.777 23.3945 15.9886 22.9182 18.1702Z" fill="#060F42"/>
<path d="M18.5292 19.6456C18.3505 19.5913 18.1802 19.5548 18.0218 19.4893C16.3824 18.8091 14.8737 17.9316 13.6786 16.5865C12.999 15.8216 12.467 14.9581 12.0174 14.0442C11.8042 13.6108 11.6245 13.1605 11.4413 12.713C11.2743 12.305 11.5203 11.8835 11.7793 11.576C12.0223 11.2874 12.3352 11.0667 12.6739 10.9039C12.9383 10.7769 13.199 10.8501 13.3922 11.0742C13.8095 11.5587 14.193 12.0679 14.5034 12.6296C14.6943 12.975 14.642 13.3973 14.2959 13.6323C14.2118 13.6894 14.1352 13.7566 14.0568 13.8211C13.9881 13.8776 13.9235 13.9348 13.8763 14.0113C13.7903 14.1514 13.7862 14.3167 13.8415 14.469C14.2682 15.6416 14.9874 16.5534 16.1677 17.0446C16.3566 17.1232 16.5462 17.2146 16.7638 17.1893C17.1282 17.1468 17.2462 16.747 17.5016 16.5382C17.7512 16.3341 18.0702 16.3314 18.339 16.5016C18.6079 16.6718 18.8685 16.8544 19.1277 17.0391C19.382 17.2204 19.6352 17.3976 19.8698 17.6043C20.0954 17.8029 20.1731 18.0636 20.046 18.3331C19.8135 18.8269 19.4751 19.2376 18.987 19.4999C18.8492 19.5738 18.6846 19.5977 18.5292 19.6456C18.3505 19.5913 18.6846 19.5977 18.5292 19.6456Z" fill="#060F42"/>
<path d="M16.0036 10.3387C18.1479 10.3989 19.9093 11.8219 20.2867 13.9419C20.351 14.3032 20.3739 14.6724 20.4025 15.0391C20.4146 15.1933 20.3272 15.3398 20.1608 15.3419C19.989 15.3439 19.9116 15.2001 19.9004 15.046C19.8783 14.7409 19.863 14.4343 19.821 14.1318C19.599 12.5344 18.3253 11.2128 16.7353 10.9292C16.4959 10.8866 16.2512 10.8754 16.0088 10.8499C15.8556 10.8339 15.6549 10.8246 15.621 10.6341C15.5926 10.4744 15.7273 10.3473 15.8794 10.3391C15.9206 10.3367 15.9621 10.3386 16.0036 10.3387C18.1481 10.3989 15.9621 10.3386 16.0036 10.3387Z" fill="#060F42"/>
<path d="M19.2632 14.5635C19.2597 14.5903 19.2579 14.6533 19.2421 14.7125C19.1852 14.9278 18.8587 14.9547 18.7837 14.7375C18.7614 14.6731 18.758 14.5997 18.7579 14.5303C18.7572 14.0762 18.6585 13.6225 18.4294 13.2273C18.194 12.8211 17.8342 12.4798 17.4124 12.2731C17.1573 12.1482 16.8815 12.0705 16.6018 12.0243C16.4797 12.0041 16.3562 11.9919 16.2333 11.9748C16.0845 11.9541 16.005 11.8593 16.0122 11.7126C16.0187 11.5753 16.1192 11.4763 16.2689 11.4849C16.761 11.5128 17.2363 11.6193 17.6739 11.8509C18.5635 12.3221 19.0718 13.0657 19.2202 14.0588C19.2269 14.1038 19.2376 14.1483 19.241 14.1935C19.2494 14.3048 19.2547 14.4164 19.2632 14.5635C19.2597 14.5902 19.2547 14.4164 19.2632 14.5635Z" fill="#060F42"/>
<path d="M17.9318 14.5108C17.7524 14.514 17.6564 14.4146 17.6379 14.2503C17.6251 14.1356 17.6148 14.0194 17.5874 13.9078C17.5336 13.6879 17.4168 13.4843 17.2319 13.3496C17.1446 13.2861 17.0457 13.2398 16.9421 13.2098C16.8106 13.1717 16.6738 13.1822 16.5426 13.1501C16.4001 13.1151 16.3212 12.9996 16.3436 12.8659C16.364 12.7442 16.4824 12.6492 16.6154 12.6589C17.4468 12.7189 18.041 13.1487 18.1258 14.1274C18.1319 14.1965 18.1389 14.2694 18.1236 14.3356C18.0972 14.4486 18.0134 14.5053 17.9318 14.5108C17.7524 14.5139 18.0134 14.5053 17.9318 14.5108Z" fill="#060F42"/>
<path d="M18.5312 19.6461C18.6878 19.5978 18.351 19.5913 18.5312 19.6461V19.6461Z" fill="white"/>
<path d="M16.0039 10.3398C16.0057 10.3398 16.0075 10.34 16.0093 10.34C16.1283 10.3443 18.0638 10.3976 16.0039 10.3398Z" fill="white"/>
<path d="M19.2626 14.5642C19.254 14.416 19.259 14.5911 19.2626 14.5642V14.5642Z" fill="white"/>
<path d="M17.9272 14.5115C17.9298 14.5114 17.9323 14.5101 17.9347 14.5098C17.9278 14.5098 17.9172 14.5099 17.9062 14.5103C17.9133 14.5105 17.9198 14.5116 17.9272 14.5115Z" fill="white"/>
<path d="M17.9277 14.515C17.9196 14.5151 17.9125 14.5139 17.9047 14.5137C17.8659 14.5147 17.8259 14.5168 17.9277 14.515Z" fill="white"/>
<path d="M17.9334 14.5098C17.9308 14.5101 17.9283 14.5114 17.9258 14.5116C17.9452 14.5102 17.9436 14.5098 17.9334 14.5098Z" fill="white"/>
</g>
<defs>
<clipPath id="clip0_7244_80356">
<rect width="32" height="32" fill="white"/>
</clipPath>
</defs>
</svg>
