<svg width="24" height="25" viewBox="0 0 24 25" fill="none" xmlns="http://www.w3.org/2000/svg">
<g clipPath="url(#clip0_7132_70107)">
<path d="M12.9992 1.40234H20.9992C22.1992 1.40234 23.2992 2.40234 23.2992 3.70234V21.7023C23.2992 22.9023 22.2992 24.0023 20.9992 24.0023H12.9992C11.7992 24.0023 10.6992 23.0023 10.6992 21.7023V3.60234C10.7992 2.40234 11.7992 1.40234 12.9992 1.40234Z" stroke="#060F42" strokeWidth="1.5"/>
<path d="M20.6992 6.10156H13.6992V7.60156H20.6992V6.10156Z" fill="#060F42"/>
<path d="M20.6992 9.10156H13.6992V10.6016H20.6992V9.10156Z" fill="#060F42"/>
<path d="M17 19.6016C17.5523 19.6016 18 19.1538 18 18.6016C18 18.0493 17.5523 17.6016 17 17.6016C16.4477 17.6016 16 18.0493 16 18.6016C16 19.1538 16.4477 19.6016 17 19.6016Z" fill="#060F42"/>
<path d="M10.499 7.90234H2.99922C1.79922 7.90234 0.699219 8.90234 0.699219 10.2023V17.1023C0.699219 18.3023 1.69922 19.4023 2.99922 19.4023H10.499V7.90234Z" stroke="#060F42" strokeWidth="1.5"/>
<path d="M10.7016 21.6016V19.6016H10.1203H8.37656H7.60156V20.4016V21.4016V22.2016H8.37656H10.1203H10.7016C10.7016 21.9016 10.7016 21.8016 10.7016 21.6016Z" stroke="#060F42" strokeWidth="1.5"/>
<path d="M10.8 21.6016H5.8C5.3 21.6016 5 21.9016 5 22.4016C5 22.9016 5.3 23.2016 5.8 23.2016H11.4C11 22.7016 10.8 22.2016 10.8 21.6016Z" fill="#060F42"/>
</g>
<defs>
<clipPath id="clip0_7132_70107">
<rect width="24" height="24" fill="white" transform="translate(0 0.601562)"/>
</clipPath>
</defs>
</svg>
