<svg width="24" height="18" viewBox="0 0 24 18" fill="none" xmlns="http://www.w3.org/2000/svg">
<path d="M20.3198 4.67575L20.3506 4.84584L20.4254 4.94803C20.4292 4.9562 20.4342 4.96716 20.4405 4.98133C20.4654 5.03771 20.4994 5.11965 20.5422 5.22759C20.6275 5.44225 20.7388 5.73692 20.8681 6.08779C21.1262 6.78825 21.4495 7.69498 21.7666 8.59478C22.0834 9.49391 22.3931 10.3834 22.6236 11.0482C22.7388 11.3806 22.8342 11.6567 22.9008 11.8497L22.9779 12.0734L22.9981 12.1322L23.0029 12.1462C23.7033 14.3072 22.8695 16.2686 21.354 16.8062C19.8466 17.341 17.9359 16.2994 17.2395 14.1585L17.2256 14.1155L17.2065 14.0745L16.0346 11.5516L15.8329 11.1176H15.3544H8.55704H8.07778L7.87644 11.5525L6.78261 13.9153L6.76843 13.9459L6.75706 13.9777C5.97788 16.1554 4.05718 17.1705 2.64435 16.6493L2.63149 16.6446L2.61846 16.6403C1.20146 16.1756 0.284527 14.1515 0.986929 11.985L0.99194 11.9703L1.01155 11.9127L1.08615 11.6938L1.35367 10.9098C1.57576 10.2596 1.87346 9.38936 2.17599 8.50926C2.47862 7.6289 2.78572 6.73975 3.02673 6.0512C3.14732 5.70666 3.25075 5.41413 3.32855 5.19866C3.39184 5.02336 3.4284 4.92716 3.44266 4.88965C3.44813 4.87525 3.45031 4.8695 3.44946 4.87125L3.49499 4.77793L3.51346 4.67575C3.83522 2.8952 5.535 1.44922 7.61948 1.44922H16.2138C18.2983 1.44922 19.9981 2.8952 20.3198 4.67575Z" stroke="#060F42" stroke-width="1.5" stroke-miterlimit="10"/>
<rect x="13" y="5.19922" width="2" height="2" rx="1" fill="#060F42"/>
<rect x="17" y="5.19922" width="2" height="2" rx="1" fill="#060F42"/>
<rect x="15" y="3.19922" width="2" height="2" rx="1" fill="#060F42"/>
<rect x="15" y="7.19922" width="2" height="2" rx="1" fill="#060F42"/>
<line x1="8" y1="4.19922" x2="8" y2="7.69922" stroke="#060F42" strokeWidth="1.5" strokeLinecap="round"/>
<line x1="9.75" y1="5.94922" x2="6.25" y2="5.94922" stroke="#060F42" strokeWidth="1.5" strokeLinecap="round"/>
</svg>
