<svg width="24" height="25" viewBox="0 0 24 25" fill="none" xmlns="http://www.w3.org/2000/svg">
<g clipPath="url(#clip0_7197_70195)">
<path d="M6 9.60156V2.60156H18V9.60156" stroke="#060F42" strokeWidth="1.5" strokeLinecap="round" strokeLinejoin="round"/>
<path d="M6 18.6016H4C3.46957 18.6016 2.96086 18.3908 2.58579 18.0158C2.21071 17.6407 2 17.132 2 16.6016V11.6016C2 11.0711 2.21071 10.5624 2.58579 10.1873C2.96086 9.81228 3.46957 9.60156 4 9.60156H20C20.5304 9.60156 21.0391 9.81228 21.4142 10.1873C21.7893 10.5624 22 11.0711 22 11.6016V16.6016C22 17.132 21.7893 17.6407 21.4142 18.0158C21.0391 18.3908 20.5304 18.6016 20 18.6016H18" stroke="#060F42" strokeWidth="1.5" strokeLinecap="round" strokeLinejoin="round"/>
<path d="M18 15.6016H6V22.6016H18V15.6016Z" stroke="#060F42" strokeWidth="1.5" strokeLinecap="round" strokeLinejoin="round"/>
<rect x="5" y="11.6016" width="2" height="2" rx="1" fill="#060F42"/>
<rect x="8" y="11.6016" width="2" height="2" rx="1" fill="#060F42"/>
</g>
<defs>
<clipPath id="clip0_7197_70195">
<rect width="24" height="24" fill="white" transform="translate(0 0.601562)"/>
</clipPath>
</defs>
</svg>
