<svg width="24" height="25" viewBox="0 0 24 25" fill="none" xmlns="http://www.w3.org/2000/svg">
<path d="M6.99922 1.20117H16.9992C18.1992 1.20117 19.2992 2.20117 19.2992 3.50117V19.5012C19.2992 20.7012 18.2992 21.8012 16.9992 21.8012H6.99922C5.79922 21.8012 4.69922 20.8012 4.69922 19.5012V3.40117C4.79922 2.20117 5.79922 1.20117 6.99922 1.20117Z" stroke="#060F42" strokeWidth="1.5"/>
<path d="M11.9992 11.2012C13.7992 11.2012 15.2992 12.7012 15.2992 14.5012C15.2992 16.3012 13.7992 17.8012 11.9992 17.8012C10.1992 17.8012 8.69922 16.3012 8.69922 14.5012C8.79922 12.6012 10.1992 11.2012 11.9992 11.2012Z" stroke="#060F42" strokeWidth="1.5"/>
<path d="M11.9992 4.20117C13.1992 4.20117 14.2992 5.20117 14.2992 6.50117C14.2992 7.70117 13.2992 8.80117 11.9992 8.80117C10.7992 8.80117 9.69922 7.80117 9.69922 6.50117C9.79922 5.20117 10.7992 4.20117 11.9992 4.20117Z" stroke="#060F42" strokeWidth="1.5"/>
<path d="M17.4008 21.8047H13.8008V22.4011C13.8008 23.1011 14.4008 23.7011 15.1008 23.7011H16.1008C16.8008 23.7011 17.4008 23.1011 17.4008 22.4011V21.8047ZM17.4008 21.8047C17.2008 21.8047 17.5008 21.8047 17.4008 21.8047Z" stroke="#060F42" strokeWidth="1.5"/>
<path d="M10.6 21.8008H7V22.3972C7 23.0972 7.6 23.6972 8.3 23.6972H9.3C10 23.6972 10.6 23.0972 10.6 22.3972V21.8008ZM10.6 21.8008C10.4 21.8008 10.7 21.8008 10.6 21.8008Z" stroke="#060F42" strokeWidth="1.5"/>
</svg>
