<svg width="360" height="49" viewBox="0 0 360 49" fill="none" xmlns="http://www.w3.org/2000/svg">
<path d="M30.5481 18.9664L30.5483 18.9666C30.8872 19.3021 31.1557 19.6999 31.3387 20.1373C31.5218 20.5747 31.6159 21.0432 31.6159 21.5162C31.6159 21.9892 31.5218 22.4577 31.3387 22.8951C31.1557 23.3325 30.8872 23.7303 30.5483 24.0658L30.5482 24.0659L29.6999 24.9059L24.0011 30.5487L18.3023 24.9059L17.454 24.0659C16.7697 23.3884 16.3867 22.4711 16.3867 21.5162C16.3867 20.5613 16.7697 19.644 17.454 18.9665C18.1384 18.2887 19.0683 17.9067 20.0395 17.9067C21.0107 17.9067 21.9406 18.2887 22.625 18.9665L23.1527 18.4335L22.625 18.9665L23.4734 19.8065C23.7657 20.0959 24.2365 20.0959 24.5288 19.8065L25.3771 18.9665L25.3773 18.9664C25.716 18.6308 26.1187 18.3641 26.5624 18.1821C27.0061 18 27.4819 17.9062 27.9627 17.9062C28.4434 17.9062 28.9192 18 29.3629 18.1821C29.8066 18.3641 30.2093 18.6308 30.5481 18.9664Z" stroke="#060F42" strokeWidth="1.5" strokeLinecap="round" strokeLinejoin="round"/>
<path d="M57.496 18.512V30H56.008V21.824C56.008 21.7013 56.0107 21.5707 56.016 21.432C56.0267 21.2933 56.0373 21.152 56.048 21.008L52.224 28.024C52.0907 28.2853 51.8853 28.416 51.608 28.416H51.368C51.0907 28.416 50.888 28.2853 50.76 28.024L46.864 20.984C46.896 21.2827 46.912 21.5627 46.912 21.824V30H45.416V18.512H46.68C46.8293 18.512 46.944 18.528 47.024 18.56C47.1093 18.5867 47.1893 18.6667 47.264 18.8L51.104 25.68C51.1787 25.8187 51.248 25.9653 51.312 26.12C51.376 26.2747 51.4373 26.4293 51.496 26.584C51.608 26.2693 51.7387 25.9653 51.888 25.672L55.656 18.8C55.7253 18.6667 55.8 18.5867 55.88 18.56C55.9653 18.528 56.0827 18.512 56.232 18.512H57.496ZM63.2319 21.744C63.8292 21.744 64.3679 21.8427 64.8479 22.04C65.3332 22.232 65.7439 22.512 66.0799 22.88C66.4212 23.2427 66.6825 23.6827 66.8639 24.2C67.0452 24.712 67.1359 25.288 67.1359 25.928C67.1359 26.568 67.0452 27.1467 66.8639 27.664C66.6825 28.1813 66.4212 28.6213 66.0799 28.984C65.7439 29.3467 65.3332 29.6267 64.8479 29.824C64.3679 30.016 63.8292 30.112 63.2319 30.112C62.6292 30.112 62.0852 30.016 61.5999 29.824C61.1199 29.6267 60.7092 29.3467 60.3679 28.984C60.0265 28.6213 59.7625 28.1813 59.5759 27.664C59.3945 27.1467 59.3039 26.568 59.3039 25.928C59.3039 25.288 59.3945 24.712 59.5759 24.2C59.7625 23.6827 60.0265 23.2427 60.3679 22.88C60.7092 22.512 61.1199 22.232 61.5999 22.04C62.0852 21.8427 62.6292 21.744 63.2319 21.744ZM63.2319 28.896C63.9999 28.896 64.5732 28.6373 64.9519 28.12C65.3305 27.6027 65.5199 26.8747 65.5199 25.936C65.5199 24.9973 65.3305 24.2693 64.9519 23.752C64.5732 23.2293 63.9999 22.968 63.2319 22.968C62.4532 22.968 61.8719 23.2293 61.4879 23.752C61.1092 24.2693 60.9199 24.9973 60.9199 25.936C60.9199 26.8747 61.1092 27.6027 61.4879 28.12C61.8719 28.6373 62.4532 28.896 63.2319 28.896ZM75.7253 21.872V30H74.1573V26.256H70.4373V30H68.8773V21.872H70.4373V25.072H74.1573V21.872H75.7253ZM84.9645 21.872V30H83.3965V24.688C83.3965 24.5813 83.4018 24.464 83.4125 24.336C83.4232 24.2027 83.4392 24.0693 83.4605 23.936C83.4072 24.048 83.3538 24.1547 83.3005 24.256C83.2525 24.352 83.2018 24.4373 83.1485 24.512L79.4125 29.608C79.3538 29.704 79.2765 29.7947 79.1805 29.88C79.0845 29.9653 78.9752 30.008 78.8525 30.008H77.9085V21.872H79.4685V27.192C79.4685 27.2987 79.4632 27.4187 79.4525 27.552C79.4418 27.68 79.4258 27.808 79.4045 27.936C79.5112 27.7013 79.6152 27.512 79.7165 27.368L83.4525 22.264C83.5112 22.1733 83.5885 22.0853 83.6845 22C83.7858 21.9147 83.8978 21.872 84.0205 21.872H84.9645ZM93.9509 23.056H90.8869V30H89.3189V23.056H86.2549V21.872H93.9509V23.056ZM98.4194 21.744C99.0167 21.744 99.5554 21.8427 100.035 22.04C100.521 22.232 100.931 22.512 101.267 22.88C101.609 23.2427 101.87 23.6827 102.051 24.2C102.233 24.712 102.323 25.288 102.323 25.928C102.323 26.568 102.233 27.1467 102.051 27.664C101.87 28.1813 101.609 28.6213 101.267 28.984C100.931 29.3467 100.521 29.6267 100.035 29.824C99.5554 30.016 99.0167 30.112 98.4194 30.112C97.8167 30.112 97.2727 30.016 96.7874 29.824C96.3074 29.6267 95.8967 29.3467 95.5554 28.984C95.214 28.6213 94.95 28.1813 94.7634 27.664C94.582 27.1467 94.4914 26.568 94.4914 25.928C94.4914 25.288 94.582 24.712 94.7634 24.2C94.95 23.6827 95.214 23.2427 95.5554 22.88C95.8967 22.512 96.3074 22.232 96.7874 22.04C97.2727 21.8427 97.8167 21.744 98.4194 21.744ZM98.4194 28.896C99.1874 28.896 99.7607 28.6373 100.139 28.12C100.518 27.6027 100.707 26.8747 100.707 25.936C100.707 24.9973 100.518 24.2693 100.139 23.752C99.7607 23.2293 99.1874 22.968 98.4194 22.968C97.6407 22.968 97.0594 23.2293 96.6754 23.752C96.2967 24.2693 96.1074 24.9973 96.1074 25.936C96.1074 26.8747 96.2967 27.6027 96.6754 28.12C97.0594 28.6373 97.6407 28.896 98.4194 28.896ZM105.625 28C105.881 28.336 106.155 28.5707 106.449 28.704C106.747 28.8373 107.081 28.904 107.449 28.904C108.163 28.904 108.715 28.648 109.105 28.136C109.499 27.6187 109.697 26.8667 109.697 25.88C109.697 25.3627 109.651 24.9227 109.561 24.56C109.475 24.192 109.347 23.8933 109.177 23.664C109.011 23.4293 108.806 23.2587 108.561 23.152C108.315 23.04 108.038 22.984 107.729 22.984C107.275 22.984 106.881 23.0853 106.545 23.288C106.214 23.4907 105.907 23.7787 105.625 24.152V28ZM105.545 23.088C105.715 22.8853 105.897 22.7013 106.089 22.536C106.286 22.3653 106.497 22.2213 106.721 22.104C106.945 21.9813 107.182 21.888 107.433 21.824C107.689 21.7547 107.961 21.72 108.249 21.72C108.713 21.72 109.131 21.8107 109.505 21.992C109.883 22.1733 110.206 22.44 110.473 22.792C110.739 23.144 110.945 23.5787 111.089 24.096C111.238 24.6133 111.313 25.208 111.313 25.88C111.313 26.4827 111.23 27.0427 111.065 27.56C110.905 28.072 110.673 28.5173 110.369 28.896C110.07 29.2747 109.702 29.5733 109.265 29.792C108.833 30.0053 108.345 30.112 107.801 30.112C107.315 30.112 106.899 30.032 106.553 29.872C106.206 29.712 105.897 29.488 105.625 29.2V32.728H104.065V21.872H105.001C105.219 21.872 105.355 21.976 105.409 22.184L105.545 23.088ZM116.217 28.856C116.75 28.856 117.15 28.728 117.417 28.472C117.684 28.2107 117.817 27.88 117.817 27.48C117.817 27.2987 117.788 27.128 117.729 26.968C117.67 26.8027 117.577 26.6613 117.449 26.544C117.321 26.4213 117.153 26.3253 116.945 26.256C116.742 26.1813 116.492 26.144 116.193 26.144H114.537V28.856H116.217ZM116.193 25.008C116.753 25.008 117.225 25.0773 117.609 25.216C117.998 25.3493 118.31 25.5307 118.545 25.76C118.78 25.984 118.948 26.2453 119.049 26.544C119.156 26.8373 119.209 27.144 119.209 27.464C119.209 27.832 119.142 28.1733 119.009 28.488C118.881 28.7973 118.689 29.064 118.433 29.288C118.177 29.512 117.862 29.688 117.489 29.816C117.121 29.9387 116.697 30 116.217 30H113.049V21.872H114.537V25.008H116.193ZM122.481 21.872V30H120.921V21.872H122.481Z" fill="#060F42"/>
<g clipPath="url(#clip0_7200_70246)">
<path d="M333 31.1988L339 23.9988L333 16.7988" stroke="#060F42" strokeWidth="1.5" strokeLinecap="round" strokeLinejoin="round"/>
</g>
<rect width="360" height="48" fill="url(#paint0_linear_7200_70246)"/>
<path d="M172 25L180 33L188 25" stroke="#01579B" strokeWidth="1.5" strokeLinecap="round" strokeLinejoin="round"/>
<defs>
<linearGradient id="paint0_linear_7200_70246" x1="180" y1="0" x2="180" y2="48" gradientUnits="userSpaceOnUse">
<stop stop-color="white" stop-opacity="0.3"/>
<stop offset="0.731962" stop-color="white"/>
</linearGradient>
<clipPath id="clip0_7200_70246">
<rect width="24" height="28.8" fill="white" transform="translate(324 9.59961)"/>
</clipPath>
</defs>
</svg>
