<svg width="18" height="18" viewBox="0 0 18 18" fill="none" xmlns="http://www.w3.org/2000/svg">
<path d="M14.944 4.43961L14.9443 4.43986C15.2484 4.74083 15.4892 5.09777 15.6534 5.49011C15.8176 5.88243 15.902 6.30267 15.902 6.72689C15.902 7.15111 15.8176 7.57135 15.6534 7.96367C15.4892 8.356 15.2484 8.71295 14.9443 9.01392L14.9442 9.01404L14.1681 9.7825L8.99961 14.9002L3.83116 9.7825L3.05508 9.01404C2.44118 8.40618 2.09766 7.58331 2.09766 6.72689C2.09766 5.87046 2.44118 5.0476 3.05508 4.43973C3.66922 3.83162 4.50375 3.48867 5.37545 3.48867C6.24715 3.48867 7.08168 3.83162 7.69583 4.43973L8.22353 3.90679L7.69583 4.43973L8.47191 5.20819C8.76419 5.4976 9.23504 5.4976 9.52732 5.20819L10.3034 4.43973L10.3035 4.43961C10.6075 4.13848 10.9688 3.89922 11.367 3.73584C11.7652 3.57247 12.1923 3.48828 12.6238 3.48828C13.0553 3.48828 13.4823 3.57247 13.8805 3.73584C14.2787 3.89922 14.6401 4.13848 14.944 4.43961Z" stroke="#01579B" stroke-width="1.5" stroke-linecap="round" stroke-linejoin="round"/>
</svg>
