<svg width="20" height="21" viewBox="0 0 20 21" fill="none" xmlns="http://www.w3.org/2000/svg">
<mask id="path-1-inside-1_7132_60290" fill="white">
<rect y="13.1523" width="7.34697" height="7.34697" rx="1"/>
</mask>
<rect y="13.1523" width="7.34697" height="7.34697" rx="1" stroke="#F4F8FB" stroke-width="3" mask="url(#path-1-inside-1_7132_60290)"/>
<mask id="path-2-inside-2_7132_60290" fill="white">
<rect y="2.53906" width="7.34697" height="7.34697" rx="1"/>
</mask>
<rect y="2.53906" width="7.34697" height="7.34697" rx="1" stroke="#F4F8FB" stroke-width="3" mask="url(#path-2-inside-2_7132_60290)"/>
<mask id="path-3-inside-3_7132_60290" fill="white">
<rect x="10.6133" y="13.1523" width="7.34697" height="7.34697" rx="1"/>
</mask>
<rect x="10.6133" y="13.1523" width="7.34697" height="7.34697" rx="1" stroke="#F4F8FB" stroke-width="3" mask="url(#path-3-inside-3_7132_60290)"/>
<path d="M10.0773 6.2549C9.97965 6.15727 9.97965 5.99898 10.0773 5.90135L14.2428 1.73582C14.3404 1.63819 14.4987 1.63819 14.5964 1.73582L18.7619 5.90135C18.8595 5.99898 18.8595 6.15727 18.7619 6.2549L14.5964 10.4204C14.4987 10.5181 14.3404 10.5181 14.2428 10.4204L12.16 8.33767L10.0773 6.2549Z" stroke="#F4F8FB" stroke-width="1.5"/>
</svg>
