<svg width="38" height="32" viewBox="0 0 38 32" fill="none" xmlns="http://www.w3.org/2000/svg">
<path d="M21.5638 3.51015L21.564 3.50999C22.3666 2.71488 23.3201 2.08362 24.3703 1.65276C25.4204 1.22189 26.5464 1 27.6837 1C28.8211 1 29.947 1.22189 30.9972 1.65276C32.0474 2.08362 33.0009 2.71488 33.8035 3.50999L34.5073 2.79956L33.8038 3.51032C34.6068 4.30503 35.2433 5.24808 35.6773 6.28532C36.1114 7.32254 36.3346 8.43392 36.3346 9.55606C36.3346 10.6782 36.1114 11.7896 35.6773 12.8268C35.2433 13.864 34.6068 14.8071 33.8038 15.6018L33.8037 15.602L31.9443 17.4431L19.0008 30.2594L6.05735 17.4431L4.19798 15.602C2.57688 13.9968 1.66797 11.8218 1.66797 9.55606C1.66797 7.2903 2.57688 5.11533 4.19798 3.51015C5.81942 1.90465 8.02064 1.00093 10.3179 1.00093C12.6152 1.00093 14.8164 1.90465 16.4379 3.51015L18.2972 5.35126C18.6869 5.73714 19.3147 5.73714 19.7044 5.35126L21.5638 3.51015Z" stroke="#060F42" stroke-width="2" stroke-linecap="round" stroke-linejoin="round"/>
</svg>
